<?xml version="1.0" standalone="no"?>
<!DOCTYPE svg PUBLIC "-//W3C//DTD SVG 20010904//EN"
 "http://www.w3.org/TR/2001/REC-SVG-20010904/DTD/svg10.dtd">
<svg version="1.0" xmlns="http://www.w3.org/2000/svg"
 width="256.000000pt" height="256.000000pt" viewBox="0 0 256.000000 256.000000"
 preserveAspectRatio="xMidYMid meet">
<metadata>
Created by potrace 1.14, written by Peter Selinger 2001-2017
</metadata>
<g transform="translate(0.000000,256.000000) scale(0.100000,-0.100000)"
fill="#000000" stroke="none">
<path d="M1235 2484 c-11 -9 -32 -20 -47 -26 -16 -5 -28 -14 -28 -20 0 -5 -4
-6 -10 -3 -6 4 -7 -1 -3 -11 5 -13 2 -15 -18 -9 -19 5 -21 4 -9 -5 13 -9 13
-12 -2 -21 -10 -5 -18 -17 -18 -24 0 -8 -4 -15 -9 -15 -5 0 -13 -9 -16 -20 -4
-11 -11 -17 -17 -14 -7 5 -9 1 -5 -9 3 -9 1 -19 -5 -23 -7 -4 -8 -3 -4 4 7 12
-11 17 -48 13 -11 -1 -24 4 -28 11 -6 8 -7 5 -3 -9 5 -18 3 -22 -9 -17 -12 5
-15 2 -10 -10 6 -16 16 -14 47 12 28 24 32 6 4 -22 -16 -16 -21 -27 -14 -31 7
-3 2 -3 -11 -1 -18 3 -22 1 -18 -10 3 -8 -3 -23 -14 -34 -18 -18 -18 -24 3
-21 18 3 5 -17 -15 -22 -18 -5 -19 -8 -8 -22 12 -14 15 -14 31 1 11 10 22 14
26 11 3 -4 1 -7 -5 -7 -7 0 -12 -7 -12 -15 0 -8 -6 -15 -12 -15 -7 0 -29 -16
-47 -35 -19 -19 -43 -37 -53 -41 -10 -3 -18 -9 -18 -14 0 -5 -7 -7 -16 -3 -10
4 -17 -1 -21 -16 -3 -11 -12 -21 -20 -21 -10 0 -13 -7 -9 -22 3 -13 3 -17 0
-10 -11 24 -24 12 -19 -18 3 -17 2 -30 -2 -29 -23 4 -33 -3 -33 -23 0 -17 -3
-19 -12 -10 -16 16 -33 15 -19 -1 6 -8 7 -18 3 -22 -4 -5 0 -6 8 -3 12 4 15
-5 17 -43 0 -27 -3 -46 -8 -43 -5 3 -9 0 -9 -5 0 -6 9 -11 20 -11 11 0 20 -4
20 -10 0 -5 -4 -10 -10 -10 -5 0 -10 -6 -10 -14 0 -10 -9 -13 -30 -11 -21 3
-30 0 -30 -10 0 -9 9 -12 28 -9 24 4 25 3 10 -9 -11 -9 -14 -18 -7 -28 8 -12
10 -12 19 1 7 11 9 4 8 -25 0 -23 -3 -30 -5 -17 -7 36 -23 25 -23 -15 0 -26
-3 -34 -9 -24 -13 19 -24 -35 -27 -134 -4 -102 -5 -105 -21 -105 -8 0 -12 -4
-9 -9 3 -5 -1 -11 -9 -15 -9 -3 -12 -12 -8 -22 5 -13 2 -16 -9 -11 -11 4 -20
-3 -28 -24 -7 -16 -19 -29 -27 -29 -19 0 -43 -25 -43 -44 0 -9 -5 -15 -12 -13
-11 2 -14 -3 -17 -37 0 -8 -8 -22 -17 -30 -12 -12 -12 -16 -2 -16 19 -1 -34
-29 -54 -30 -10 0 -18 -5 -18 -11 0 -5 4 -8 9 -5 5 3 14 -1 21 -9 10 -12 10
-18 0 -30 -6 -8 -9 -19 -5 -25 3 -5 2 -10 -2 -10 -5 0 -9 -9 -10 -20 -1 -11 3
-20 9 -20 7 0 7 -4 1 -12 -11 -15 -11 -28 0 -45 6 -9 2 -13 -10 -13 -15 0 -16
-2 -3 -10 12 -8 12 -10 -3 -16 -9 -3 -14 -11 -11 -16 4 -6 10 -5 15 3 6 10 9
8 10 -8 2 -27 3 -32 13 -56 5 -10 3 -23 -3 -31 -9 -10 -8 -15 4 -20 8 -3 15
-1 15 5 0 6 5 7 10 4 6 -4 8 -11 4 -16 -8 -13 47 -60 64 -54 6 2 12 0 12 -5 0
-9 54 -25 83 -23 9 0 17 -6 17 -13 0 -17 17 -18 23 -1 8 23 60 -15 69 -51 6
-22 14 -32 23 -29 7 3 16 -2 20 -11 5 -14 7 -14 15 -2 8 12 10 10 10 -8 0 -12
3 -21 8 -20 12 3 112 -64 112 -75 0 -6 3 -7 7 -4 3 4 11 0 17 -9 6 -8 28 -16
48 -17 25 -1 34 -5 27 -13 -6 -7 -4 -16 6 -24 12 -10 15 -10 15 1 1 9 7 7 18
-7 10 -11 23 -19 31 -16 7 2 18 -2 23 -9 8 -11 9 -10 5 3 -3 9 -1 19 6 22 9 3
9 5 0 5 -10 1 -13 59 -13 256 0 163 -4 255 -10 255 -5 0 -10 -4 -10 -9 0 -5
-9 -11 -20 -14 -19 -5 -20 -14 -20 -196 l0 -191 -36 0 c-31 0 -46 10 -110 73
l-74 73 0 68 0 68 -27 -7 c-16 -4 -44 -11 -63 -15 -19 -3 -44 -11 -55 -17 -50
-26 -144 6 -181 62 -31 47 2 164 85 295 47 75 150 207 200 255 l41 39 0 262 0
262 61 83 c33 46 70 98 82 116 21 31 52 47 69 37 4 -3 8 -224 8 -491 0 -451
-1 -487 -17 -499 -20 -15 -188 -104 -197 -104 -3 0 -6 55 -6 123 l0 122 -25
-30 c-63 -75 -115 -144 -115 -153 0 -6 -3 -12 -7 -14 -15 -6 -43 -80 -43 -113
0 -41 19 -49 87 -39 80 12 247 79 237 95 -3 5 1 7 8 4 7 -2 31 7 53 20 22 13
55 32 73 41 19 10 36 23 39 31 3 7 13 13 23 13 10 0 20 4 22 8 2 4 20 18 42
31 33 21 36 25 21 34 -11 6 -20 6 -24 -1 -3 -5 -34 -24 -69 -42 -52 -26 -61
-34 -51 -46 8 -10 8 -14 0 -14 -6 0 -11 5 -11 12 0 7 -7 5 -17 -4 -26 -23
-193 -111 -199 -105 -3 3 7 12 23 20 15 8 56 29 90 47 34 18 60 38 56 43 -3 6
-1 7 5 3 7 -4 12 -3 12 1 0 5 9 13 19 18 11 6 36 19 58 30 40 20 52 29 84 58
10 9 23 17 29 17 5 0 7 6 4 14 -4 11 0 13 15 9 12 -3 21 -1 21 4 0 5 15 17 33
28 27 16 84 64 240 204 15 14 27 20 27 14 0 -12 -184 -177 -255 -229 -47 -34
-56 -45 -48 -58 3 -5 1 -6 -5 -2 -7 4 -19 3 -28 -2 -14 -8 -14 -10 3 -14 21
-6 20 -6 178 123 187 153 303 281 355 391 25 52 30 107 11 109 -58 6 -104 2
-138 -12 -39 -16 -58 -39 -33 -39 6 0 10 -32 10 -76 l0 -77 -77 -79 c-89 -91
-151 -143 -160 -134 -5 5 -5 959 0 962 1 1 14 4 29 8 23 5 37 -4 107 -72 55
-52 81 -84 81 -99 0 -13 5 -23 10 -23 13 0 13 -263 0 -276 -5 -5 25 7 67 28
92 45 149 58 247 58 80 0 128 -22 154 -70 52 -101 -105 -351 -385 -611 -79
-72 -116 -114 -84 -95 8 5 11 -20 11 -88 0 -53 -4 -96 -10 -98 -5 -1 -11 -19
-12 -40 -2 -20 -6 -34 -11 -31 -4 2 -10 -4 -14 -14 -4 -10 -12 -23 -17 -30
-30 -34 -36 -43 -36 -52 0 -5 -7 -11 -15 -15 -8 -3 -15 -12 -15 -21 0 -8 -4
-15 -8 -15 -5 0 -17 -16 -28 -35 -16 -30 -24 -35 -49 -33 l-30 3 0 151 0 152
-26 -19 -27 -19 -3 -210 c-3 -135 -8 -213 -15 -218 -6 -4 -13 -14 -17 -22 -9
-21 -30 -52 -45 -68 -7 -7 -10 -18 -6 -23 3 -5 1 -8 -4 -7 -11 3 -72 -75 -72
-91 0 -5 -8 -12 -17 -14 -14 -4 -13 -5 5 -7 24 -2 56 -3 73 -1 5 1 7 6 4 11
-8 13 31 13 56 0 15 -9 19 -7 20 7 1 10 1 22 0 26 -1 5 3 6 8 2 6 -3 8 -12 4
-20 -3 -8 0 -15 6 -15 5 0 15 19 21 42 7 23 15 37 18 31 5 -8 12 -8 24 1 10 7
15 16 12 19 -3 3 6 22 20 43 19 28 22 40 13 46 -8 5 -7 8 4 8 19 0 32 26 22
43 -3 7 -3 9 1 5 9 -8 45 24 39 34 -2 4 2 5 10 2 14 -5 32 28 28 50 -1 5 5 4
13 -4 13 -10 16 -10 16 3 0 10 6 13 20 10 24 -6 26 5 4 21 -13 10 -13 12 5 12
12 0 21 -7 21 -14 0 -12 3 -12 15 -2 8 7 15 19 15 26 0 8 5 14 10 14 6 0 10
-5 10 -11 0 -6 7 -3 16 6 13 12 14 19 5 28 -8 8 -11 8 -11 -1 0 -7 -5 -12 -11
-12 -19 0 3 22 37 36 19 8 34 19 34 25 0 5 4 7 10 4 6 -3 7 1 4 9 -3 9 -1 16
5 16 6 0 11 5 11 11 0 6 -9 8 -22 4 -18 -5 -20 -4 -8 4 10 7 11 11 2 11 -21 0
-8 24 21 39 31 16 36 32 7 24 -16 -4 -19 -2 -14 11 3 9 9 16 13 16 4 0 8 6 8
14 0 7 -7 13 -16 12 -20 -1 -16 35 5 47 8 5 11 13 8 19 -5 7 -2 8 6 3 9 -5 11
-4 6 4 -4 6 -12 9 -17 6 -5 -4 -17 -1 -26 4 -17 10 -17 10 -1 11 12 0 16 5 11
18 -5 14 -3 13 10 -3 13 -16 17 -17 18 -5 1 8 1 19 0 24 -1 5 5 3 14 -4 13
-11 14 -10 9 5 -4 10 -3 16 2 13 14 -9 54 10 53 24 0 9 -2 10 -5 1 -6 -13 -34
-6 -34 9 0 5 5 6 12 2 7 -5 9 -2 5 9 -5 14 -3 14 23 -1 27 -16 28 -18 13 -34
-20 -23 -10 -24 12 -1 16 15 15 18 -6 34 l-23 17 37 7 c20 4 34 12 31 17 -3 5
-12 7 -19 4 -8 -3 -18 1 -24 7 -7 9 0 12 29 9 21 -2 47 1 57 7 15 9 12 10 -19
11 -39 0 -49 15 -26 38 16 16 29 15 25 0 -1 -8 10 -13 30 -13 17 0 35 -3 39
-7 14 -15 26 -8 13 8 -7 9 -22 14 -36 11 -13 -2 -28 2 -34 9 -14 17 9 54 36
55 11 0 14 3 8 6 -7 2 -13 9 -13 14 0 6 5 7 10 4 6 -3 10 4 11 17 0 13 3 17 6
11 9 -24 30 -14 25 12 -2 15 0 25 7 25 7 0 9 5 5 12 -4 6 -3 8 4 4 5 -3 13 0
15 6 3 8 6 7 6 -4 1 -9 -6 -21 -15 -26 -11 -6 -13 -12 -6 -16 6 -3 18 4 27 16
12 16 19 19 22 10 3 -6 9 -9 15 -6 5 3 0 13 -11 21 -12 8 -21 19 -21 26 0 8 3
8 12 -1 7 -7 17 -12 23 -12 5 0 3 4 -5 10 -17 11 -11 19 20 25 31 6 35 12 20
30 -10 12 -10 18 0 30 6 8 9 18 6 24 -3 5 -1 11 6 13 6 2 12 11 14 19 1 7 5
26 9 40 4 16 2 30 -4 34 -8 4 -7 13 4 27 13 19 12 23 -3 34 -15 12 -15 13 6
14 21 0 22 1 8 16 -9 8 -16 22 -16 30 0 8 -7 14 -16 14 -13 0 -14 3 -5 14 8
10 8 20 -4 42 -8 16 -15 40 -15 53 0 13 -3 22 -6 18 -4 -3 -13 1 -21 9 -8 8
-19 12 -24 9 -5 -4 -6 1 -3 10 5 11 2 14 -10 9 -9 -3 -16 -2 -16 3 0 23 -58
34 -186 34 -74 0 -134 3 -134 8 0 16 14 20 28 8 13 -10 14 -9 10 3 -3 10 -15
14 -34 12 -16 -1 -24 1 -19 5 20 16 16 51 -6 67 -20 14 -21 16 -5 22 16 6 16
8 0 25 -9 11 -23 19 -30 19 -7 0 -11 6 -8 14 3 7 -8 26 -25 42 -16 15 -27 32
-24 38 4 5 0 7 -10 3 -11 -4 -20 5 -32 29 -11 23 -22 34 -31 30 -8 -3 -14 -1
-14 4 0 5 -9 12 -20 15 -11 4 -18 11 -15 16 3 5 -1 6 -10 2 -11 -4 -25 4 -42
23 -19 22 -26 25 -32 15 -7 -10 -10 -9 -16 8 -3 12 -17 29 -31 37 -13 9 -21
20 -18 26 9 15 -28 37 -61 37 -16 0 -39 -7 -50 -15z m69 -36 c3 -13 6 -278 6
-590 l0 -567 -56 -45 c-31 -26 -60 -46 -66 -46 -6 0 -7 -7 -4 -16 3 -9 2 -12
-5 -9 -5 4 -25 -5 -44 -19 -18 -14 -38 -26 -44 -26 -8 0 -11 161 -11 529 0
497 1 532 19 573 18 42 143 216 165 230 20 14 34 8 40 -14z m-231 -1328 c13 0
-12 -20 -25 -20 -5 0 -8 92 -8 203 0 112 3 246 8 298 5 72 8 28 10 -193 2
-220 5 -288 15 -288z m1067 366 c0 -3 -4 -8 -10 -11 -5 -3 -10 -1 -10 4 0 6 5
11 10 11 6 0 10 -2 10 -4z m-223 -198 c-3 -8 -6 -5 -6 6 -1 11 2 17 5 13 3 -3
4 -12 1 -19z m-37 -38 c0 -5 -5 -10 -11 -10 -5 0 -7 5 -4 10 3 6 8 10 11 10 2
0 4 -4 4 -10z m-60 -70 c0 -5 -5 -10 -11 -10 -5 0 -7 5 -4 10 3 6 8 10 11 10
2 0 4 -4 4 -10z m-47 -35 c-3 -9 -8 -14 -10 -11 -3 3 -2 9 2 15 9 16 15 13 8
-4z m-446 -382 c-2 -32 -3 -6 -3 57 0 63 1 89 3 58 2 -32 2 -84 0 -115z m383
12 c-7 -9 -15 -13 -17 -11 -7 7 7 26 19 26 6 0 6 -6 -2 -15z m-653 -207 c-2
-29 -3 -6 -3 52 0 58 1 81 3 53 2 -29 2 -77 0 -105z m219 -228 c0 -11 -4 -20
-8 -20 -10 0 -11 24 -1 33 9 9 9 10 9 -13z"/>
<path d="M897 2263 c-4 -3 -7 -13 -7 -21 0 -18 13 -7 16 13 2 17 1 18 -9 8z"/>
<path d="M1750 2170 c0 -19 3 -21 12 -12 9 9 9 15 0 24 -9 9 -12 7 -12 -12z"/>
<path d="M1774 2055 c-16 -12 -17 -14 -3 -15 9 0 19 7 23 15 7 19 5 19 -20 0z"/>
<path d="M771 2004 c0 -11 3 -14 6 -6 3 7 2 16 -1 19 -3 4 -6 -2 -5 -13z"/>
<path d="M690 1895 c0 -15 2 -17 9 -6 5 7 15 17 22 22 10 6 7 8 -9 6 -15 -1
-22 -8 -22 -22z"/>
<path d="M2198 1697 c-3 -19 -2 -25 4 -19 6 6 8 18 6 28 -3 14 -5 12 -10 -9z"/>
<path d="M2151 1394 c0 -11 3 -14 6 -6 3 7 2 16 -1 19 -3 4 -6 -2 -5 -13z"/>
<path d="M590 1371 c0 -25 6 -27 13 -6 4 8 2 17 -3 20 -6 4 -10 -3 -10 -14z"/>
<path d="M2110 1360 c0 -19 3 -21 12 -12 9 9 9 15 0 24 -9 9 -12 7 -12 -12z"/>
<path d="M2055 1360 c-3 -5 -1 -10 4 -10 6 0 11 5 11 10 0 6 -2 10 -4 10 -3 0
-8 -4 -11 -10z"/>
<path d="M520 1316 c0 -2 8 -10 18 -17 15 -13 16 -12 3 4 -13 16 -21 21 -21
13z"/>
<path d="M2077 1313 c-4 -3 -7 -11 -7 -17 0 -6 5 -5 12 2 6 6 9 14 7 17 -3 3
-9 2 -12 -2z"/>
<path d="M1965 1280 c3 -5 8 -10 11 -10 2 0 4 5 4 10 0 6 -5 10 -11 10 -5 0
-7 -4 -4 -10z"/>
<path d="M440 1205 c-8 -9 -8 -15 -2 -15 12 0 26 19 19 26 -2 2 -10 -2 -17
-11z"/>
<path d="M1775 1013 c-35 -39 -34 -58 3 -39 33 17 60 46 43 46 -6 0 -11 -5
-11 -11 0 -5 -5 -7 -10 -4 -8 5 -7 11 1 21 21 25 0 15 -26 -13z"/>
<path d="M295 901 c-3 -5 -1 -12 5 -16 5 -3 10 1 10 9 0 18 -6 21 -15 7z"/>
<path d="M1730 846 c0 -2 7 -6 15 -10 8 -3 15 -1 15 4 0 6 -7 10 -15 10 -8 0
-15 -2 -15 -4z"/>
<path d="M330 663 c0 -5 5 -15 10 -23 8 -12 10 -11 10 8 0 12 -4 22 -10 22 -5
0 -10 -3 -10 -7z"/>
<path d="M1620 645 c-11 -13 -10 -14 4 -9 9 3 16 10 16 15 0 13 -6 11 -20 -6z"/>
<path d="M1555 620 c-4 -6 -10 -8 -15 -5 -5 3 -11 1 -15 -5 -9 -14 16 -12 45
5 18 10 20 14 8 15 -9 0 -20 -5 -23 -10z"/>
<path d="M648 543 c-5 -27 15 -63 35 -63 21 0 22 9 2 24 -9 6 -17 21 -18 34
-2 26 -14 29 -19 5z"/>
<path d="M1450 489 c0 -5 5 -7 10 -4 6 3 10 8 10 11 0 2 -4 4 -10 4 -5 0 -10
-5 -10 -11z"/>
<path d="M696 451 c-3 -5 1 -11 9 -14 9 -4 12 -1 8 9 -6 16 -10 17 -17 5z"/>
<path d="M750 400 c0 -5 5 -10 10 -10 6 0 10 5 10 10 0 6 -4 10 -10 10 -5 0
-10 -4 -10 -10z"/>
<path d="M1347 333 c-4 -3 -7 -11 -7 -17 0 -6 5 -5 12 2 6 6 9 14 7 17 -3 3
-9 2 -12 -2z"/>
<path d="M1115 279 c-11 -17 -2 -18 19 -3 17 12 17 14 4 14 -9 0 -20 -5 -23
-11z"/>
</g>
</svg>
